HIERARCHY
ROOT root
{
	OFFSET	0	13.1	24.9
	CHANNELS 6  Xposition Yposition Zposition Xrotation Yrotation Zrotation
	JOINT spine_1
	{
		OFFSET	0	9.99999	0
		CHANNELS 3  Xrotation Yrotation Zrotation
		JOINT spine_2
		{
			OFFSET	0	112	-10
			CHANNELS 3  Xrotation Yrotation Zrotation
			JOINT spine_3
			{
				OFFSET	0	206.5	19.3
				CHANNELS 3  Xrotation Yrotation Zrotation
				JOINT spine_4
				{
					OFFSET	0	110.4	14.6
					CHANNELS 3  Xrotation Yrotation Zrotation
					JOINT neck_1
					{
						OFFSET	0	71.8	-50.3
						CHANNELS 3  Xrotation Yrotation Zrotation
						JOINT neck_2
						{
							OFFSET	0	86.2	-25.8
							CHANNELS 3  Xrotation Yrotation Zrotation
							JOINT head_ee
							{
								OFFSET	0	179.8	-8.7
								CHANNELS 3  Xrotation Yrotation Zrotation
								End Site
								{
									OFFSET	1	0	0
								}
							}
						}
					}
					JOINT left_clavicle
					{
						OFFSET	-43.2	22.4	-70.8
						CHANNELS 3  Xrotation Yrotation Zrotation
						JOINT left_shoulder
						{
							OFFSET	-93.9	-5.79999	48.7
							CHANNELS 3  Xrotation Yrotation Zrotation
							JOINT left_elbow
							{
								OFFSET	-291.4	-30.8	15.2
								CHANNELS 3  Xrotation Yrotation Zrotation
								JOINT left_lowarm_twist
								{
									OFFSET	-110.7	-3.89999	13.6
									CHANNELS 3  Xrotation Yrotation Zrotation
									JOINT left_hand
									{
										OFFSET	-110.7	-3.89999	13.6
										CHANNELS 3  Xrotation Yrotation Zrotation
										JOINT left_ee
										{
											OFFSET	-80.8	-5.10001	12.1
											CHANNELS 3  Xrotation Yrotation Zrotation
											End Site
											{
												OFFSET	1	0	0
											}
										}
									}
								}
							}
						}
					}
					JOINT right_clavicle
					{
						OFFSET	43.2	22.4	-70.8
						CHANNELS 3  Xrotation Yrotation Zrotation
						JOINT right_shoulder
						{
							OFFSET	93.9	-5.79999	48.7
							CHANNELS 3  Xrotation Yrotation Zrotation
							JOINT right_elbow
							{
								OFFSET	291.4	-30.8	15.2
								CHANNELS 3  Xrotation Yrotation Zrotation
								JOINT right_lowarm_twist
								{
									OFFSET	110.7	-3.89999	13.6
									CHANNELS 3  Xrotation Yrotation Zrotation
									JOINT right_hand
									{
										OFFSET	110.7	-3.89999	13.6
										CHANNELS 3  Xrotation Yrotation Zrotation
										JOINT right_ee
										{
											OFFSET	80.8	-5.10001	12.1
											CHANNELS 3  Xrotation Yrotation Zrotation
											End Site
											{
												OFFSET	1	0	0
											}
										}
									}
								}
							}
						}
					}
				}
			}
		}
	}
	JOINT left_hip
	{
		OFFSET	-82.8	-127.5	0.300001
		CHANNELS 3  Xrotation Yrotation Zrotation
		JOINT left_knee
		{
			OFFSET	-28.2	-396.7	2.2
			CHANNELS 3  Xrotation Yrotation Zrotation
			JOINT left_ankle
			{
				OFFSET	-11.7	-411.3	35.4
				CHANNELS 3  Xrotation Yrotation Zrotation
				JOINT left_toes
				{
					OFFSET	0	-60	-88.6
					CHANNELS 3  Xrotation Yrotation Zrotation
					JOINT left_foot_ee
					{
						OFFSET	-22.5	-16.5	-42.2
						CHANNELS 3  Xrotation Yrotation Zrotation
						End Site
						{
							OFFSET	1	0	0
						}
					}
				}
			}
		}
	}
	JOINT right_hip
	{
		OFFSET	82.8	-127.5	0.300001
		CHANNELS 3  Xrotation Yrotation Zrotation
		JOINT right_knee
		{
			OFFSET	28.2	-396.7	2.2
			CHANNELS 3  Xrotation Yrotation Zrotation
			JOINT right_ankle
			{
				OFFSET	11.7	-411.3	35.4
				CHANNELS 3  Xrotation Yrotation Zrotation
				JOINT right_toes
				{
					OFFSET	0	-60	-88.6
					CHANNELS 3  Xrotation Yrotation Zrotation
					JOINT right_foot_ee
					{
						OFFSET	22.5	-16.5	-42.2
						CHANNELS 3  Xrotation Yrotation Zrotation
						End Site
						{
							OFFSET	1	0	0
						}
					}
				}
			}
		}
	}
}
MOTION
Frames: 8
Frame Time: 0.02
2778.12 712.879 -1476.54 1.36482 65.6468 -8.91329 -1.7807 0.786586 5.74787 -1.76243 0.419866 5.7861 -1.70207 -0.978433 5.71843 -1.74766 -0.0646163 5.8009 -11.9205 15.7275 -11.9324 -12.3036 37.3948 -6.87405 -0.0 0.0 -0.0 -4.15337 9.70198 -6.09029 29.3422 -14.7602 53.818 6.2627 -72.1011 4.5607 -45.553 -3.56013 4.43035 3.78148 13.8267 31.0074 -0.0 0.0 -0.0 11.9163 15.3449 -23.9942 -25.8637 39.9509 -60.853 0.248441 7.01631 -0.0152308 -64.6099 5.86099 -5.22141 -6.51129 -22.0569 30.8509 0.0 0.0 0.0 -16.3459 18.0989 16.8268 -10.438 0.287061 1.57397 35.8815 18.0011 -4.59184 -26.0655 0.0 0.0 -0.0 0.0 -0.0 36.1158 27.2374 -7.54736 -7.78371 -0.241355 -1.16927 -2.14762 -20.6156 -0.323021 13.7389 -0.0 -0.0 0.0 0.0 0.0 
2761.67 709.748 -1478.15 0.372683 66.607 -7.78088 -1.82188 0.751915 5.62827 -1.80435 0.392838 5.66455 -1.74817 -0.980052 5.59316 -1.79179 -0.0859009 5.67746 -11.9186 15.462 -12.245 -12.258 37.094 -7.27561 -0.0 0.0 -0.0 -4.24544 10.6694 -6.04153 28.9426 -15.236 55.136 6.75715 -73.3305 5.03285 -45.1793 -3.51805 4.40733 3.81709 13.6935 31.236 -0.0 0.0 -0.0 12.168 15.3254 -24.5707 -24.9338 39.9326 -61.008 0.190146 5.38111 -0.00893563 -64.5657 5.85541 -5.22048 -6.34393 -21.9663 29.7626 0.0 0.0 0.0 -16.8097 16.284 16.6942 -10.0478 0.281518 1.51435 35.4108 17.8035 -4.54128 -25.456 0.0 0.0 -0.0 0.0 -0.0 37.0852 27.9896 -7.88421 -10.3997 -0.286535 -1.56811 1.37348 -23.1295 0.207168 14.6626 -0.0 -0.0 0.0 0.0 0.0 
2738.26 705.4 -1477.55 -0.391448 67.166 -7.11332 -1.74007 0.771085 5.53717 -1.72312 0.417738 5.57486 -1.66592 -0.926172 5.51342 -1.70831 -0.0452231 5.59025 -10.1838 14.7909 -12.852 -10.105 36.3946 -8.7924 -0.0 0.0 -0.0 -4.46858 11.6367 -6.21237 28.2255 -17.1223 56.5252 7.05009 -73.9838 5.31396 -43.9713 -3.38306 4.33107 3.81408 13.0203 31.0203 -0.0 0.0 -0.0 11.9739 15.631 -24.1149 -24.9404 39.2715 -60.6665 0.19818 5.60704 -0.00970481 -64.8134 5.88671 -5.22564 -6.17332 -21.8536 28.6835 0.0 0.0 0.0 -17.8957 16.139 18.0076 -8.24794 0.250702 1.23989 36.7847 17.3413 -4.6694 -25.3639 0.0 0.0 -0.0 0.0 -0.0 37.2142 29.2224 -8.13595 -12.3004 -0.307914 -1.85895 -4.15098 -23.163 -0.6334 14.1119 -0.0 -0.0 0.0 0.0 0.0 
2711.72 698.153 -1476.66 -1.94311 67.5141 -6.33113 -1.75746 0.785776 5.54154 -1.74049 0.432123 5.58014 -1.6817 -0.914933 5.52174 -1.72422 -0.0328161 5.5967 -8.9578 14.3766 -13.3246 -8.59604 36.049 -9.87757 -0.0 0.0 -0.0 -4.86386 12.6106 -6.66269 26.6242 -18.8407 57.826 7.02876 -73.9379 5.29346 -43.0548 -3.28174 4.27132 3.81675 12.5751 30.91 -0.0 0.0 -0.0 11.7466 16.006 -23.5805 -25.1296 38.9597 -60.1237 0.20887 5.90742 -0.0107772 -64.9802 5.90781 -5.22903 -6.05228 -21.8595 27.8531 0.0 0.0 0.0 -19.0619 15.7298 18.9864 -7.7862 0.241407 1.16965 38.0488 17.0554 -4.78602 -25.182 0.0 0.0 -0.0 0.0 -0.0 37.216 30.3501 -7.9458 -14.6861 -0.321079 -2.22473 -9.16824 -23.1271 -1.40989 13.6301 -0.0 -0.0 0.0 0.0 0.0 
2686.95 693.472 -1484.77 -1.57035 67.9654 -7.3386 -1.71618 0.842961 5.52073 -1.69936 0.490511 5.563 -1.63511 -0.849355 5.51975 -1.6776 0.0316333 5.58443 -7.18628 14.3809 -13.9309 -6.42692 36.6193 -11.2338 -0.0 0.0 -0.0 -5.38933 14.3154 -7.12615 25.986 -20.2754 58.6281 5.82891 -70.8677 4.14934 -39.6956 -2.91885 4.03871 3.71827 10.3069 29.4762 -0.0 0.0 -0.0 11.9284 16.4658 -23.9755 -23.9676 38.4625 -60.8651 0.195931 5.54381 -0.00948632 -64.9625 5.90557 -5.22868 -5.82956 -22.0458 26.2038 0.0 0.0 0.0 -19.4696 14.7946 18.8052 -8.74181 0.260016 1.31511 39.3522 18.5034 -4.93572 -25.7072 0.0 0.0 -0.0 0.0 -0.0 37.0862 31.3114 -8.2013 -16.8963 -0.319677 -2.56382 -16.4255 -16.9008 -2.4901 12.4875 -0.0 -0.0 0.0 0.0 0.0 
2664.27 692.167 -1483.36 -0.986955 68.4118 -8.10685 -1.92786 0.882232 5.47806 -1.91133 0.532406 5.52291 -1.84252 -0.818813 5.48787 -1.88452 0.0567844 5.54814 -5.36925 13.8174 -13.9823 -4.27562 35.74 -12.1368 -0.0 0.0 -0.0 -5.62103 14.7208 -7.40609 24.3349 -21.6046 59.836 5.5408 -69.9535 3.8779 -37.9212 -2.73284 3.9074 3.65316 9.12456 28.6073 -0.0 0.0 -0.0 11.9435 16.7655 -23.9962 -23.835 38.6289 -59.9144 0.211798 5.98962 -0.0110806 -64.945 5.90336 -5.22832 -5.65611 -22.0979 25.0158 0.0 0.0 0.0 -20.5652 13.0702 19.2669 -9.15223 0.267263 1.37767 39.7784 18.8989 -4.98344 -25.8236 0.0 0.0 -0.0 0.0 -0.0 37.4395 31.5817 -8.3502 -20.6764 -0.286985 -3.14278 -18.6997 -15.5223 -2.82969 12.972 -0.0 -0.0 0.0 0.0 0.0 
2645.54 692.54 -1488.25 -1.11407 69.8051 -7.58515 -1.80795 0.963389 5.44824 -1.79166 0.615288 5.49829 -1.71552 -0.719847 5.48562 -1.75746 0.154166 5.53036 -5.58767 13.5136 -14.883 -4.43029 35.8291 -13.0722 -0.0 0.0 -0.0 -5.75171 15.9071 -7.30457 23.226 -22.3336 60.9244 5.071 -68.268 3.43893 -36.128 -2.54911 3.76893 3.60132 8.11374 27.8838 -0.0 0.0 -0.0 12.3851 18.2502 -24.9329 -22.8573 38.7228 -59.9674 0.185316 5.24518 -0.00848837 -64.5198 5.8496 -5.21951 -5.44509 -22.1472 23.6014 0.0 0.0 0.0 -18.3696 12.2198 17.6809 -14.5004 0.320601 2.19624 37.7944 20.5811 -4.83259 -26.0234 0.0 0.0 -0.0 0.0 -0.0 37.2114 32.3986 -8.42565 -23.3287 -0.241282 -3.54717 -16.1164 -13.0743 -2.42486 14.0517 -0.0 -0.0 0.0 0.0 0.0 
2616.13 693.519 -1502.8 0.241794 69.6996 -8.82923 -1.92957 1.04964 5.60819 -1.91235 0.691241 5.66337 -1.82513 -0.696324 5.66275 -1.86979 0.205236 5.70158 -4.90294 15.0183 -12.6762 -3.82172 36.9924 -10.7328 -0.0 0.0 -0.0 -6.49408 19.4097 -7.48483 22.4573 -23.6762 61.7464 4.61121 -66.3351 3.01469 -33.9607 -2.33297 3.59405 3.30506 6.04394 24.9852 -0.0 0.0 -0.0 12.8441 19.5748 -25.9126 -21.2378 39.7425 -60.5897 0.213939 6.04972 -0.0113052 -64.2475 5.81522 -5.21365 -5.32361 -21.8664 23.0287 0.0 0.0 0.0 -16.261 12.2888 15.5384 -21.1487 0.280217 3.21493 37.7913 24.9112 -4.94793 -26.8881 0.0 0.0 -0.0 0.0 -0.0 36.1104 32.0535 -9.35211 -27.1793 -0.14173 -4.1296 -11.4481 -7.39218 -1.71031 14.2401 -0.0 -0.0 0.0 0.0 0.0 
